<svg version="1.1" id="Layer_1" xmlns="http://www.w3.org/2000/svg" xmlns:xlink="http://www.w3.org/1999/xlink" x="0px" y="0px"
	 width="100%" viewBox="0 0 2048 2048" enable-background="new 0 0 2048 2048" xml:space="preserve">
<path fill="#000000" opacity="1.000000" stroke="none" 
	d="
M884.000000,2049.000000 
	C589.333313,2049.000000 295.166656,2049.000000 1.000000,2049.000000 
	C1.000000,1366.333374 1.000000,683.666687 1.000000,1.000000 
	C683.666687,1.000000 1366.333374,1.000000 2049.000000,1.000000 
	C2049.000000,683.666687 2049.000000,1366.333374 2049.000000,2049.000000 
	C1660.833374,2049.000000 1272.666626,2049.000000 884.000000,2049.000000 
M922.998962,1200.000366 
	C922.998962,1200.000366 923.096069,1199.999268 922.919922,1199.472290 
	C922.612976,1199.283081 922.305969,1199.093994 921.999451,1198.999756 
	C921.999451,1198.999756 922.094360,1198.999878 921.920166,1198.472290 
	C921.613464,1198.282715 921.306702,1198.093018 920.999878,1197.999023 
	C920.999878,1197.999023 921.095459,1197.998657 920.922852,1197.469116 
	C920.614990,1197.280151 920.307129,1197.091309 920.009216,1196.981812 
	C920.009216,1196.981812 920.088623,1196.971313 919.835938,1196.342896 
	C910.696655,1187.942627 903.475037,1178.114868 897.975952,1167.001465 
	C895.320068,1161.634033 892.644531,1156.276367 889.952087,1150.140625 
	C886.501953,1139.817871 884.405701,1129.327881 885.003418,1118.328979 
	C885.335083,1112.225342 884.890381,1106.079346 884.914185,1099.105957 
	C885.264832,1097.173340 885.663086,1095.247925 885.958984,1093.307007 
	C889.642639,1069.136963 901.185608,1048.975708 917.418701,1031.131714 
	C927.240845,1020.334961 938.858398,1011.829224 950.977539,1003.981079 
	C950.977539,1003.981079 950.985229,1004.040588 951.723511,1003.962769 
	C958.557678,1000.956909 965.377686,997.918335 972.229431,994.953186 
	C981.450806,990.962585 990.696777,987.028625 1000.698853,982.945862 
	C1018.208862,975.595764 1035.889893,968.618347 1053.140259,960.702332 
	C1059.551147,957.760559 1065.713623,953.364075 1070.647217,948.318542 
	C1079.301758,939.467651 1082.045410,927.996460 1081.991211,915.736267 
	C1081.886597,892.088257 1082.023438,868.439209 1081.919189,844.791199 
	C1081.900879,840.632324 1081.195190,836.476501 1080.770996,831.932922 
	C1070.058838,836.466248 1060.000488,840.722839 1049.179810,845.051147 
	C1028.873901,852.360107 1008.568726,859.671204 988.261780,866.977478 
	C969.595703,873.693420 950.730347,879.910217 932.321289,887.268860 
	C916.772705,893.484070 901.180664,900.012268 886.654663,908.248230 
	C871.341187,916.930786 856.720520,926.938293 843.463623,938.866333 
	C828.904663,951.965881 815.458374,965.926331 804.462219,982.142639 
	C801.178345,986.985474 798.143616,992.030334 795.393188,997.194824 
	C789.788635,1007.718201 784.455139,1018.385986 778.537659,1029.141846 
	C778.191467,1029.346191 778.096558,1029.633545 778.116028,1030.651123 
	C778.094482,1031.091553 778.072937,1031.531860 777.419373,1032.335938 
	C774.625061,1040.889404 771.830750,1049.442993 768.419617,1058.457153 
	C766.622437,1069.772217 763.948059,1081.033447 763.247681,1092.416016 
	C762.349915,1107.004517 763.014954,1121.690796 763.084412,1136.334717 
	C763.091797,1137.892456 763.619080,1139.447754 764.008118,1141.920410 
	C766.018188,1153.321411 766.770264,1165.134521 770.337646,1176.025269 
	C775.489502,1191.753296 782.683105,1206.812256 789.071167,1222.857910 
	C792.090454,1228.098267 795.043213,1233.378296 798.141052,1238.571899 
	C809.571594,1257.735840 824.788208,1273.742310 840.708191,1289.115967 
	C844.827515,1293.093750 849.544189,1296.453003 854.293762,1300.692749 
	C856.834290,1302.468750 859.374817,1304.244629 862.164490,1306.638428 
	C863.108032,1307.140381 864.051514,1307.642456 865.317566,1308.738770 
	C876.981567,1315.161255 888.397888,1322.094238 900.361389,1327.899536 
	C924.957397,1339.834839 951.303467,1346.295288 978.407104,1347.678589 
	C1002.091125,1348.887329 1025.934937,1348.903564 1049.519043,1344.140991 
	C1074.477417,1339.100708 1097.940918,1330.339844 1120.095947,1317.975830 
	C1125.979614,1314.692383 1131.463379,1310.691895 1137.757812,1306.742065 
	C1145.577881,1300.583252 1153.822998,1294.883057 1161.100098,1288.138306 
	C1168.580200,1281.205566 1175.273193,1273.391968 1182.015259,1265.704468 
	C1187.587524,1259.350708 1192.728760,1252.618896 1197.998413,1246.006836 
	C1197.998413,1246.006836 1198.050537,1246.066895 1198.529053,1245.909546 
	C1198.623901,1245.617798 1198.718872,1245.325928 1199.102905,1244.390503 
	C1205.990479,1231.801392 1213.420410,1219.474487 1219.657959,1206.571167 
	C1234.703369,1175.447632 1238.814819,1142.153564 1237.958496,1107.064819 
	C1238.302734,1088.628906 1238.776367,1070.194214 1238.963745,1051.756714 
	C1239.340698,1014.661621 1239.592773,977.565063 1239.830566,940.468750 
	C1239.917114,926.982849 1239.816895,913.495728 1239.968018,899.084595 
	C1239.916992,880.364258 1239.865967,861.643860 1239.964355,842.013611 
	C1239.919312,823.276550 1239.874268,804.539429 1239.979126,784.924438 
	C1240.323730,766.726929 1240.773926,748.530640 1240.977417,730.331604 
	C1241.123779,717.231873 1240.941040,704.128418 1241.033691,690.140808 
	C1241.004395,673.689331 1240.975098,657.237854 1241.008667,639.757751 
	C1241.008667,635.315857 1241.008667,630.873962 1241.008667,626.001465 
	C1238.839478,626.001465 1237.217285,626.001404 1235.594971,626.001465 
	C1199.001099,626.003784 1162.407349,625.984436 1125.813477,626.014587 
	C1091.550781,626.042847 1057.288208,626.123657 1022.096313,626.025085 
	C1014.104858,626.017822 1006.113220,625.983215 998.121948,626.015808 
	C994.575684,626.030212 990.998535,626.526062 987.489502,626.207703 
	C974.089050,624.992126 961.591553,626.868347 950.256958,636.030823 
	C947.422729,638.239502 944.592041,640.452759 941.753662,642.656128 
	C930.440613,651.438232 922.909790,662.956848 919.291870,676.595154 
	C917.168030,684.601501 916.469360,693.104187 916.094360,701.427063 
	C915.598083,712.438965 915.949707,723.495972 916.230225,734.526123 
	C916.259644,735.684265 918.104431,737.497131 919.382874,737.786255 
	C922.719788,738.540894 926.203430,738.820312 929.640015,738.929688 
	C942.224243,739.330078 954.811707,739.674500 967.400574,739.873352 
	C990.286499,740.234741 1013.174255,740.476929 1036.984375,740.889099 
	C1052.308838,740.863037 1067.633301,740.836975 1083.890381,740.954651 
	C1094.546387,741.320984 1105.202393,741.687378 1115.857544,742.138367 
	C1115.857544,742.138367 1115.942017,742.143860 1115.940918,743.055664 
	C1116.301147,752.822693 1116.903076,762.588013 1116.973633,772.357178 
	C1117.144409,796.012329 1116.895142,819.671204 1117.160522,843.324707 
	C1117.301392,855.885986 1118.161499,868.439148 1118.564941,881.701904 
	C1118.428345,885.819397 1118.291748,889.936829 1118.046387,894.979187 
	C1117.697754,967.515076 1117.527344,1040.052734 1116.793579,1112.584717 
	C1116.692505,1122.570190 1114.568115,1132.729370 1112.022949,1142.452881 
	C1107.608032,1159.319458 1099.750244,1174.630371 1088.536011,1188.179565 
	C1077.383057,1201.654907 1064.455444,1212.783447 1047.971680,1219.042603 
	C1038.839355,1222.510376 1029.344116,1225.022827 1019.107727,1228.035522 
	C1017.110107,1228.030640 1015.063538,1227.737183 1013.122559,1228.066284 
	C996.424561,1230.897339 980.085876,1228.776123 964.265503,1223.546997 
	C949.526306,1218.675293 936.157715,1210.922241 923.930847,1200.471680 
	C923.619629,1200.282227 923.308472,1200.092773 922.998962,1200.000366 
z"/>
<path fill="#F9901F" opacity="1.000000" stroke="none" 
	d="
M1239.802002,900.009155 
	C1239.816895,913.495728 1239.917114,926.982849 1239.830566,940.468750 
	C1239.592773,977.565063 1239.340698,1014.661621 1238.963745,1051.756714 
	C1238.776367,1070.194214 1238.302734,1088.628906 1237.553467,1107.650024 
	C1236.435791,1109.785156 1235.521606,1111.276001 1235.046875,1112.895630 
	C1233.309326,1118.824585 1232.678101,1125.312256 1229.825317,1130.619629 
	C1226.362427,1137.062012 1223.312744,1143.354248 1222.590088,1150.666748 
	C1222.533691,1151.237305 1222.018433,1152.148682 1221.583374,1152.235718 
	C1217.396606,1153.072754 1212.756714,1155.255127 1209.060303,1154.200317 
	C1200.692871,1151.812500 1191.864380,1157.979492 1183.979858,1152.245361 
	C1183.876587,1152.170166 1183.646729,1152.224609 1183.491821,1152.271240 
	C1178.479736,1153.786255 1173.469727,1155.307983 1167.793945,1157.030640 
	C1163.655884,1152.502686 1158.180420,1150.327515 1150.965332,1151.602295 
	C1145.995483,1152.480347 1141.249878,1147.663574 1141.103882,1142.433350 
	C1140.985840,1138.204712 1138.612915,1136.806152 1135.210327,1136.536743 
	C1133.908936,1136.433716 1132.504272,1137.637573 1131.675171,1138.009033 
	C1130.340454,1133.971069 1128.536865,1130.393433 1128.032593,1126.641113 
	C1126.422363,1114.661621 1124.608154,1102.643677 1124.145386,1090.591675 
	C1123.490845,1073.546631 1124.337524,1056.448120 1123.880005,1039.390137 
	C1123.234253,1015.309937 1121.897461,991.249023 1121.022949,967.173828 
	C1120.515869,953.214600 1120.375366,939.242432 1119.994507,925.278198 
	C1119.715210,915.038086 1121.083984,904.976746 1129.043945,897.935120 
	C1137.106323,890.802856 1139.686157,880.736206 1143.886841,871.882629 
	C1147.723511,863.796448 1153.440918,858.659302 1160.484131,859.841064 
	C1166.754883,860.893127 1170.922974,857.983459 1176.084473,857.405823 
	C1178.734985,857.109192 1181.534424,858.463867 1184.255127,858.416443 
	C1193.644531,858.252869 1203.038818,857.396667 1212.411011,857.626953 
	C1217.180908,857.744202 1221.946777,859.480591 1226.622070,860.809875 
	C1227.595215,861.086487 1228.343262,862.708923 1228.886230,863.857239 
	C1233.462646,873.539185 1235.838013,883.813843 1237.223999,894.390442 
	C1237.479858,896.342407 1238.912476,898.140198 1239.802002,900.009155 
z"/>
<path fill="#E87825" opacity="1.000000" stroke="none" 
	d="
M1239.885010,899.546875 
	C1238.912476,898.140198 1237.479858,896.342407 1237.223999,894.390442 
	C1235.838013,883.813843 1233.462646,873.539185 1228.886230,863.857239 
	C1228.343262,862.708923 1227.595215,861.086487 1226.622070,860.809875 
	C1221.946777,859.480591 1217.180908,857.744202 1212.411011,857.626953 
	C1203.038818,857.396667 1193.644531,858.252869 1184.255127,858.416443 
	C1181.534424,858.463867 1178.734985,857.109192 1176.084473,857.405823 
	C1170.922974,857.983459 1166.754883,860.893127 1160.484131,859.841064 
	C1153.440918,858.659302 1147.723511,863.796448 1143.886841,871.882629 
	C1139.686157,880.736206 1137.106323,890.802856 1129.043945,897.935120 
	C1121.083984,904.976746 1119.715210,915.038086 1119.994507,925.278198 
	C1120.375366,939.242432 1120.515869,953.214600 1121.022949,967.173828 
	C1121.897461,991.249023 1123.234253,1015.309937 1123.880005,1039.390137 
	C1124.337524,1056.448120 1123.490845,1073.546631 1124.145386,1090.591675 
	C1124.608154,1102.643677 1126.422363,1114.661621 1128.032593,1126.641113 
	C1128.536865,1130.393433 1130.340454,1133.971069 1131.675171,1138.009033 
	C1132.504272,1137.637573 1133.908936,1136.433716 1135.210327,1136.536743 
	C1138.612915,1136.806152 1140.985840,1138.204712 1141.103882,1142.433350 
	C1141.249878,1147.663574 1145.995483,1152.480347 1150.965332,1151.602295 
	C1158.180420,1150.327515 1163.655884,1152.502686 1167.793945,1157.030640 
	C1173.469727,1155.307983 1178.479736,1153.786255 1183.491821,1152.271240 
	C1183.646729,1152.224609 1183.876587,1152.170166 1183.979858,1152.245361 
	C1191.864380,1157.979492 1200.692871,1151.812500 1209.060303,1154.200317 
	C1212.756714,1155.255127 1217.396606,1153.072754 1221.583374,1152.235718 
	C1222.018433,1152.148682 1222.533691,1151.237305 1222.590088,1150.666748 
	C1223.312744,1143.354248 1226.362427,1137.062012 1229.825317,1130.619629 
	C1232.678101,1125.312256 1233.309326,1118.824585 1235.046875,1112.895630 
	C1235.521606,1111.276001 1236.435791,1109.785156 1237.492188,1108.114746 
	C1238.814819,1142.153564 1234.703369,1175.447632 1219.657959,1206.571167 
	C1213.420410,1219.474487 1205.990479,1231.801392 1198.808960,1244.867554 
	C1198.321411,1245.560425 1198.166504,1245.801147 1198.050537,1246.066895 
	C1198.050537,1246.066895 1197.998413,1246.006836 1197.666138,1246.046509 
	C1196.073730,1247.028198 1194.403442,1247.713989 1193.625977,1248.957764 
	C1190.651733,1253.715820 1186.756958,1257.023071 1181.183350,1258.236206 
	C1180.236572,1258.442261 1178.803955,1258.841187 1178.566040,1259.500977 
	C1176.376465,1265.572510 1170.413818,1265.997559 1165.817627,1268.663574 
	C1158.332642,1273.005249 1152.433716,1279.628296 1143.586548,1282.251465 
	C1137.780029,1283.973145 1135.961548,1284.663940 1131.108276,1280.489502 
	C1128.380981,1278.143799 1125.353638,1276.001465 1122.148926,1274.387939 
	C1116.116577,1271.350464 1109.434326,1269.428223 1103.789185,1265.836792 
	C1094.506592,1259.931519 1085.805420,1253.106079 1076.927734,1246.575317 
	C1074.812744,1245.019531 1073.213379,1242.640137 1070.954102,1241.426025 
	C1064.118164,1237.752075 1059.486694,1232.711060 1058.860718,1224.570190 
	C1058.423950,1224.462402 1057.920410,1224.172485 1057.491089,1224.257568 
	C1052.948364,1225.158325 1048.801514,1229.867554 1043.702637,1225.645386 
	C1043.513306,1225.488525 1042.775513,1225.887695 1042.354492,1226.132812 
	C1035.195679,1230.301880 1027.623535,1229.359131 1020.012451,1227.966064 
	C1029.344116,1225.022827 1038.839355,1222.510376 1047.971680,1219.042603 
	C1064.455444,1212.783447 1077.383057,1201.654907 1088.536011,1188.179565 
	C1099.750244,1174.630371 1107.608032,1159.319458 1112.022949,1142.452881 
	C1114.568115,1132.729370 1116.692505,1122.570190 1116.793579,1112.584717 
	C1117.527344,1040.052734 1117.697754,967.515076 1118.282349,894.201050 
	C1123.424194,878.989502 1128.288940,864.541931 1133.256592,850.129883 
	C1135.229370,844.406616 1137.429932,838.761902 1139.692749,832.792236 
	C1139.955566,832.305725 1140.052246,832.108459 1140.455811,831.804077 
	C1143.857544,826.483276 1146.952637,821.269531 1150.350098,815.916260 
	C1152.784424,814.482666 1154.916260,813.188477 1156.968018,812.241577 
	C1155.053711,816.284912 1152.983398,819.892944 1151.548584,823.737915 
	C1151.183105,824.717651 1152.915894,827.685791 1153.544678,827.643860 
	C1159.587036,827.240540 1165.601807,826.407898 1171.619019,825.653015 
	C1173.691650,825.393005 1175.828003,825.256165 1177.796509,824.628113 
	C1182.846313,823.017029 1187.730591,824.153015 1192.734497,824.823242 
	C1194.688354,825.084900 1197.723999,824.494751 1198.759521,823.140259 
	C1203.305176,817.194275 1209.942993,817.997253 1215.999023,817.171204 
	C1227.753296,815.567810 1236.013062,822.565918 1237.134033,834.281982 
	C1237.415283,837.221069 1238.889160,840.046082 1239.814941,842.923523 
	C1239.865967,861.643860 1239.916992,880.364258 1239.885010,899.546875 
z"/>
<path fill="#1E88C5" opacity="1.000000" stroke="none" 
	d="
M1023.025574,626.181335 
	C1057.288208,626.123657 1091.550781,626.042847 1125.813477,626.014587 
	C1162.407349,625.984436 1199.001099,626.003784 1235.594971,626.001465 
	C1237.217285,626.001404 1238.839478,626.001465 1241.008667,626.001465 
	C1241.008667,630.873962 1241.008667,635.315857 1240.883789,640.571045 
	C1239.835327,650.617188 1240.084717,660.158630 1237.753540,669.021240 
	C1232.215210,690.076904 1224.682373,710.568176 1214.160156,729.689941 
	C1208.205444,740.511292 1200.815063,750.542603 1193.680298,760.845215 
	C1185.229614,759.466919 1176.893677,759.049377 1169.192993,756.618591 
	C1162.305542,754.444519 1155.903076,755.584045 1149.187622,755.789856 
	C1144.236938,755.941711 1138.855469,755.843262 1135.269165,750.954224 
	C1131.708618,746.100342 1126.823486,742.674133 1123.381226,737.246643 
	C1118.836182,730.079895 1110.727295,725.146790 1104.025635,719.399109 
	C1102.859009,718.398621 1100.958130,718.308594 1099.597046,717.471558 
	C1092.469116,713.088135 1085.479736,708.475342 1078.294678,704.189819 
	C1073.203369,701.153137 1065.518311,702.380615 1063.114868,694.845276 
	C1062.956787,694.349426 1061.680420,694.200073 1060.916504,693.909668 
	C1057.441406,692.588562 1053.963623,691.274536 1049.726196,689.669922 
	C1051.881592,688.303223 1053.113647,687.521973 1055.090820,686.268250 
	C1051.718750,684.948547 1048.496704,684.607605 1046.739502,682.823792 
	C1041.864624,677.875122 1037.615601,672.312012 1033.072021,667.032288 
	C1032.552124,666.428223 1031.786743,665.799011 1031.045044,665.658997 
	C1024.216309,664.369812 1022.414612,658.595520 1019.830627,653.431396 
	C1019.063721,651.898804 1018.042236,650.031311 1016.638428,649.358826 
	C1010.061829,646.208069 1009.313721,639.880737 1014.899658,634.923950 
	C1017.861816,632.295410 1020.332886,629.113464 1023.025574,626.181335 
z"/>
<path fill="#116FC0" opacity="1.000000" stroke="none" 
	d="
M779.010010,1028.994263 
	C784.455139,1018.385986 789.788635,1007.718201 795.393188,997.194824 
	C798.143616,992.030334 801.178345,986.985474 804.462219,982.142639 
	C815.458374,965.926331 828.904663,951.965881 843.463623,938.866333 
	C856.720520,926.938293 871.341187,916.930786 886.654663,908.248230 
	C901.180664,900.012268 916.772705,893.484070 932.321289,887.268860 
	C950.730347,879.910217 969.595703,873.693420 988.261780,866.977478 
	C1008.568726,859.671204 1028.873901,852.360107 1049.854248,845.268188 
	C1057.044434,845.979248 1063.560059,846.473145 1070.020386,846.962891 
	C1067.842773,850.297180 1069.456665,852.675110 1073.615234,854.660400 
	C1077.278198,856.409180 1078.243042,860.009888 1077.917969,864.015747 
	C1077.210693,872.735168 1076.427246,881.458008 1076.107300,890.195190 
	C1075.953003,894.407776 1074.237427,897.309448 1071.396851,900.193481 
	C1069.741455,901.874268 1068.465820,904.468628 1068.133423,906.810120 
	C1067.195435,913.418945 1064.498413,919.049927 1059.220947,922.939209 
	C1054.991577,926.056091 1050.023315,928.151062 1045.536377,930.945984 
	C1043.225830,932.385193 1041.504517,935.014038 1039.071289,935.963501 
	C1033.598511,938.098999 1027.839233,939.494751 1022.215637,941.252930 
	C1020.641479,941.745056 1019.106384,942.389282 1017.601013,943.069153 
	C1012.781250,945.246155 1008.152832,948.014771 1003.145386,949.576111 
	C989.237976,953.912170 975.185974,957.787659 961.171753,961.776917 
	C954.162415,963.772156 947.045166,965.408020 940.091797,967.575562 
	C925.191345,972.220276 910.450317,977.392029 895.482666,981.800476 
	C883.517944,985.324524 871.360962,988.003418 860.292114,994.216675 
	C854.418335,997.513672 847.990723,999.939087 841.613586,1002.193359 
	C834.410278,1004.739807 827.031433,1006.840149 819.630188,1008.752319 
	C816.484009,1009.565125 813.005310,1010.009583 809.818787,1009.578674 
	C799.443665,1008.175476 792.702209,1011.069336 787.330444,1020.133850 
	C785.537964,1023.158569 784.325745,1026.544312 782.383301,1029.454590 
	C781.550842,1030.701904 779.531494,1031.157104 778.051392,1031.972168 
	C778.072937,1031.531860 778.094482,1031.091553 778.335083,1030.177979 
	C778.744141,1029.492310 778.896057,1029.255493 779.010010,1028.994263 
z"/>
<path fill="#E85E23" opacity="1.000000" stroke="none" 
	d="
M1019.560059,1228.000732 
	C1027.623535,1229.359131 1035.195679,1230.301880 1042.354492,1226.132812 
	C1042.775513,1225.887695 1043.513306,1225.488525 1043.702637,1225.645386 
	C1048.801514,1229.867554 1052.948364,1225.158325 1057.491089,1224.257568 
	C1057.920410,1224.172485 1058.423950,1224.462402 1058.860718,1224.570190 
	C1059.486694,1232.711060 1064.118164,1237.752075 1070.954102,1241.426025 
	C1073.213379,1242.640137 1074.812744,1245.019531 1076.927734,1246.575317 
	C1085.805420,1253.106079 1094.506592,1259.931519 1103.789185,1265.836792 
	C1109.434326,1269.428223 1116.116577,1271.350464 1122.148926,1274.387939 
	C1125.353638,1276.001465 1128.380981,1278.143799 1131.108276,1280.489502 
	C1135.961548,1284.663940 1137.780029,1283.973145 1143.586548,1282.251465 
	C1152.433716,1279.628296 1158.332642,1273.005249 1165.817627,1268.663574 
	C1170.413818,1265.997559 1176.376465,1265.572510 1178.566040,1259.500977 
	C1178.803955,1258.841187 1180.236572,1258.442261 1181.183350,1258.236206 
	C1186.756958,1257.023071 1190.651733,1253.715820 1193.625977,1248.957764 
	C1194.403442,1247.713989 1196.073730,1247.028198 1197.697510,1246.070312 
	C1192.728760,1252.618896 1187.587524,1259.350708 1182.015259,1265.704468 
	C1175.273193,1273.391968 1168.580200,1281.205566 1161.100098,1288.138306 
	C1153.822998,1294.883057 1145.577881,1300.583252 1137.025269,1306.878174 
	C1128.734375,1308.838623 1121.210693,1310.824829 1113.609863,1312.450317 
	C1101.295898,1315.083618 1089.024536,1318.229126 1076.563721,1319.780151 
	C1062.173828,1321.571411 1047.873169,1319.275513 1033.653076,1316.346313 
	C1001.588806,1309.741455 972.611450,1297.174561 948.668274,1274.269043 
	C944.615234,1270.391602 942.153442,1270.557007 937.964600,1274.534058 
	C933.768494,1278.518188 930.772278,1283.266602 924.777832,1285.918457 
	C913.746826,1290.798584 903.569763,1297.604370 893.018066,1303.574463 
	C889.332703,1305.659668 888.852173,1309.289551 892.198547,1312.011108 
	C893.973999,1313.455078 896.055969,1314.597412 898.141907,1315.570923 
	C905.190125,1318.860718 912.318970,1321.977417 919.372437,1325.256104 
	C920.523987,1325.791260 921.450256,1326.811157 922.480591,1327.607056 
	C922.234314,1328.052856 921.987976,1328.498535 921.741638,1328.944214 
	C918.617798,1327.733398 915.536316,1326.395264 912.360718,1325.340210 
	C906.850952,1323.509644 901.222717,1322.024658 895.751953,1320.090088 
	C883.654541,1315.812500 874.506958,1307.395874 865.842590,1298.342529 
	C861.038696,1293.322876 862.961426,1283.619385 869.618042,1281.486206 
	C878.393311,1278.674072 887.288208,1276.077026 896.304382,1274.231079 
	C902.156738,1273.032959 906.994873,1270.719482 910.993835,1266.480957 
	C913.957886,1263.339355 916.711792,1259.999512 919.674500,1256.856445 
	C923.765442,1252.516479 924.191650,1249.484009 920.888977,1244.433472 
	C917.064514,1238.585205 913.090454,1232.834717 909.047974,1226.678467 
	C906.922058,1221.029541 904.553101,1215.844971 903.096497,1210.415527 
	C902.372681,1207.717651 902.391174,1202.581177 903.681030,1201.976562 
	C908.806152,1199.574097 914.564758,1198.523071 920.088623,1196.971436 
	C920.088623,1196.971313 920.009216,1196.981812 920.141235,1197.167236 
	C920.547241,1197.568115 920.821350,1197.783447 921.095459,1197.998657 
	C921.095459,1197.998657 920.999878,1197.999023 921.136841,1198.176270 
	C921.547363,1198.568970 921.820862,1198.784424 922.094360,1198.999878 
	C922.094360,1198.999878 921.999451,1198.999756 922.136353,1199.177368 
	C922.547607,1199.569702 922.821838,1199.784424 923.096069,1199.999268 
	C923.096069,1199.999268 922.998962,1200.000366 923.142456,1200.177490 
	C923.568481,1200.568115 923.851074,1200.781616 924.133667,1200.995239 
	C936.157715,1210.922241 949.526306,1218.675293 964.265503,1223.546997 
	C980.085876,1228.776123 996.424561,1230.897339 1013.122559,1228.066284 
	C1015.063538,1227.737183 1017.110107,1228.030640 1019.560059,1228.000732 
z"/>
<path fill="#236DB6" opacity="1.000000" stroke="none" 
	d="
M777.735352,1032.154053 
	C779.531494,1031.157104 781.550842,1030.701904 782.383301,1029.454590 
	C784.325745,1026.544312 785.537964,1023.158569 787.330444,1020.133850 
	C792.702209,1011.069336 799.443665,1008.175476 809.818787,1009.578674 
	C813.005310,1010.009583 816.484009,1009.565125 819.630188,1008.752319 
	C827.031433,1006.840149 834.410278,1004.739807 841.613586,1002.193359 
	C847.990723,999.939087 854.418335,997.513672 860.292114,994.216675 
	C871.360962,988.003418 883.517944,985.324524 895.482666,981.800476 
	C910.450317,977.392029 925.191345,972.220276 940.091797,967.575562 
	C947.045166,965.408020 954.162415,963.772156 961.171753,961.776917 
	C975.185974,957.787659 989.237976,953.912170 1003.145386,949.576111 
	C1008.152832,948.014771 1012.781250,945.246155 1017.601013,943.069153 
	C1019.106384,942.389282 1020.641479,941.745056 1022.215637,941.252930 
	C1027.839233,939.494751 1033.598511,938.098999 1039.071289,935.963501 
	C1041.504517,935.014038 1043.225830,932.385193 1045.536377,930.945984 
	C1050.023315,928.151062 1054.991577,926.056091 1059.220947,922.939209 
	C1064.498413,919.049927 1067.195435,913.418945 1068.133423,906.810120 
	C1068.465820,904.468628 1069.741455,901.874268 1071.396851,900.193481 
	C1074.237427,897.309448 1075.953003,894.407776 1076.107300,890.195190 
	C1076.427246,881.458008 1077.210693,872.735168 1077.917969,864.015747 
	C1078.243042,860.009888 1077.278198,856.409180 1073.615234,854.660400 
	C1069.456665,852.675110 1067.842773,850.297180 1070.020386,846.962891 
	C1063.560059,846.473145 1057.044434,845.979248 1050.235474,845.232422 
	C1060.000488,840.722839 1070.058838,836.466248 1080.770996,831.932922 
	C1081.195190,836.476501 1081.900879,840.632324 1081.919189,844.791199 
	C1082.023438,868.439209 1081.886597,892.088257 1081.991211,915.736267 
	C1082.045410,927.996460 1079.301758,939.467651 1070.647217,948.318542 
	C1065.713623,953.364075 1059.551147,957.760559 1053.140259,960.702332 
	C1035.889893,968.618347 1018.208862,975.595764 999.907715,983.008789 
	C992.437195,985.088196 985.687012,986.900024 979.099304,989.181030 
	C973.020264,991.285767 966.946167,993.552124 961.194397,996.402100 
	C957.432251,998.266113 952.459778,998.958008 950.985229,1004.040588 
	C950.985229,1004.040588 950.977539,1003.981079 950.597412,1003.960266 
	C936.802856,1002.307251 926.573608,1009.474060 916.405701,1016.462952 
	C910.329712,1020.639343 905.325867,1027.276733 898.713684,1029.593872 
	C882.370667,1035.321289 865.316284,1038.984497 848.668518,1043.887329 
	C835.980835,1047.623901 823.457031,1051.925049 810.900452,1056.095581 
	C801.226440,1059.308838 791.889038,1064.577026 781.148804,1060.412476 
	C780.719666,1060.246094 780.094116,1060.249390 779.678711,1060.436646 
	C775.496704,1062.321777 772.089966,1060.959351 769.036499,1057.996460 
	C771.830750,1049.442993 774.625061,1040.889404 777.735352,1032.154053 
z"/>
<path fill="#236DB6" opacity="1.000000" stroke="none" 
	d="
M1022.560913,626.103210 
	C1020.332886,629.113464 1017.861816,632.295410 1014.899658,634.923950 
	C1009.313721,639.880737 1010.061829,646.208069 1016.638428,649.358826 
	C1018.042236,650.031311 1019.063721,651.898804 1019.830627,653.431396 
	C1022.414612,658.595520 1024.216309,664.369812 1031.045044,665.658997 
	C1031.786743,665.799011 1032.552124,666.428223 1033.072021,667.032288 
	C1037.615601,672.312012 1041.864624,677.875122 1046.739502,682.823792 
	C1048.496704,684.607605 1051.718750,684.948547 1055.090820,686.268250 
	C1053.113647,687.521973 1051.881592,688.303223 1049.726196,689.669922 
	C1053.963623,691.274536 1057.441406,692.588562 1060.916504,693.909668 
	C1061.680420,694.200073 1062.956787,694.349426 1063.114868,694.845276 
	C1065.518311,702.380615 1073.203369,701.153137 1078.294678,704.189819 
	C1085.479736,708.475342 1092.469116,713.088135 1099.597046,717.471558 
	C1100.958130,718.308594 1102.859009,718.398621 1104.025635,719.399109 
	C1110.727295,725.146790 1118.836182,730.079895 1123.381226,737.246643 
	C1126.823486,742.674133 1131.708618,746.100342 1135.269165,750.954224 
	C1138.855469,755.843262 1144.236938,755.941711 1149.187622,755.789856 
	C1155.903076,755.584045 1162.305542,754.444519 1169.192993,756.618591 
	C1176.893677,759.049377 1185.229614,759.466919 1193.557373,761.164673 
	C1192.248657,763.434998 1190.671631,765.301270 1188.765137,767.123535 
	C1187.994141,767.075378 1187.552734,767.071167 1186.764648,767.137939 
	C1176.849609,774.035095 1167.281006,780.861206 1157.684448,787.707397 
	C1152.196045,783.355530 1145.408203,782.240906 1138.159790,782.716797 
	C1135.607910,782.884338 1132.369995,783.829163 1130.611206,782.661987 
	C1126.015869,779.612610 1122.723267,775.341309 1121.948608,769.360107 
	C1120.859375,760.950012 1119.271240,752.602478 1117.768677,744.251221 
	C1117.627075,743.464661 1116.572632,742.842407 1115.942017,742.143860 
	C1115.942017,742.143860 1115.857544,742.138367 1115.715088,741.760254 
	C1114.556885,740.938782 1113.563477,740.173706 1112.522095,740.101257 
	C1101.586060,739.340454 1090.644043,738.665588 1079.700684,738.016663 
	C1067.688110,737.304260 1055.632935,737.039001 1043.670044,735.842651 
	C1033.131958,734.788635 1022.660889,732.908875 1012.228821,731.015564 
	C1007.310974,730.122986 1002.553894,728.343933 998.041626,727.057190 
	C998.401978,725.081909 999.563293,722.688232 998.864868,721.856689 
	C995.847534,718.264648 995.489807,712.005981 989.057373,711.623108 
	C988.247070,711.574890 987.536682,710.434204 986.714355,709.900879 
	C983.320984,707.699768 980.133301,704.261963 976.450684,703.595093 
	C964.278137,701.390930 957.821533,692.786438 952.929871,683.083679 
	C949.127075,675.540588 947.870483,666.796997 948.183960,658.281860 
	C948.459351,650.803955 949.984558,643.372009 950.957703,635.919800 
	C961.591553,626.868347 974.089050,624.992126 987.489502,626.207703 
	C990.998535,626.526062 994.575684,626.030212 998.121948,626.015808 
	C1006.113220,625.983215 1014.104858,626.017822 1022.560913,626.103210 
z"/>
<path fill="#E87825" opacity="1.000000" stroke="none" 
	d="
M909.181396,1227.041748 
	C913.090454,1232.834717 917.064514,1238.585205 920.888977,1244.433472 
	C924.191650,1249.484009 923.765442,1252.516479 919.674500,1256.856445 
	C916.711792,1259.999512 913.957886,1263.339355 910.993835,1266.480957 
	C906.994873,1270.719482 902.156738,1273.032959 896.304382,1274.231079 
	C887.288208,1276.077026 878.393311,1278.674072 869.618042,1281.486206 
	C862.961426,1283.619385 861.038696,1293.322876 865.842590,1298.342529 
	C874.506958,1307.395874 883.654541,1315.812500 895.751953,1320.090088 
	C901.222717,1322.024658 906.850952,1323.509644 912.360718,1325.340210 
	C915.536316,1326.395264 918.617798,1327.733398 921.741638,1328.944214 
	C921.987976,1328.498535 922.234314,1328.052856 922.480591,1327.607056 
	C921.450256,1326.811157 920.523987,1325.791260 919.372437,1325.256104 
	C912.318970,1321.977417 905.190125,1318.860718 898.141907,1315.570923 
	C896.055969,1314.597412 893.973999,1313.455078 892.198547,1312.011108 
	C888.852173,1309.289551 889.332703,1305.659668 893.018066,1303.574463 
	C903.569763,1297.604370 913.746826,1290.798584 924.777832,1285.918457 
	C930.772278,1283.266602 933.768494,1278.518188 937.964600,1274.534058 
	C942.153442,1270.557007 944.615234,1270.391602 948.668274,1274.269043 
	C972.611450,1297.174561 1001.588806,1309.741455 1033.653076,1316.346313 
	C1047.873169,1319.275513 1062.173828,1321.571411 1076.563721,1319.780151 
	C1089.024536,1318.229126 1101.295898,1315.083618 1113.609863,1312.450317 
	C1121.210693,1310.824829 1128.734375,1308.838623 1136.711670,1307.017578 
	C1131.463379,1310.691895 1125.979614,1314.692383 1120.095947,1317.975830 
	C1097.940918,1330.339844 1074.477417,1339.100708 1049.519043,1344.140991 
	C1025.934937,1348.903564 1002.091125,1348.887329 978.407104,1347.678589 
	C951.303467,1346.295288 924.957397,1339.834839 900.361389,1327.899536 
	C888.397888,1322.094238 876.981567,1315.161255 865.046692,1308.114624 
	C863.822327,1307.000488 862.868896,1306.510498 861.915405,1306.020508 
	C859.374817,1304.244629 856.834290,1302.468750 854.148560,1300.000977 
	C853.453796,1297.782104 852.891602,1296.259644 852.356873,1294.727539 
	C850.361145,1289.008911 847.064087,1283.374634 846.674072,1277.546997 
	C845.993103,1267.371460 854.398071,1262.865967 864.643860,1260.145020 
	C877.698608,1256.678345 889.435791,1250.749268 900.435913,1243.094971 
	C906.066528,1239.177124 907.900330,1233.281860 909.181396,1227.041748 
M927.303894,1329.910034 
	C927.107971,1329.944458 926.912048,1329.979004 926.716125,1330.013428 
	C926.908997,1330.060425 927.101929,1330.107422 927.303894,1329.910034 
z"/>
<path fill="#556C97" opacity="1.000000" stroke="none" 
	d="
M768.728027,1058.226807 
	C772.089966,1060.959351 775.496704,1062.321777 779.678711,1060.436646 
	C780.094116,1060.249390 780.719666,1060.246094 781.148804,1060.412476 
	C791.889038,1064.577026 801.226440,1059.308838 810.900452,1056.095581 
	C823.457031,1051.925049 835.980835,1047.623901 848.668518,1043.887329 
	C865.316284,1038.984497 882.370667,1035.321289 898.713684,1029.593872 
	C905.325867,1027.276733 910.329712,1020.639343 916.405701,1016.462952 
	C926.573608,1009.474060 936.802856,1002.307251 950.627319,1003.962769 
	C938.858398,1011.829224 927.240845,1020.334961 917.418701,1031.131714 
	C901.185608,1048.975708 889.642639,1069.136963 885.958984,1093.307007 
	C885.663086,1095.247925 885.264832,1097.173340 884.547119,1099.671631 
	C882.973022,1101.093994 881.877441,1102.233887 880.540344,1102.760864 
	C872.843628,1105.793823 865.102478,1108.715698 857.352661,1111.611938 
	C843.560852,1116.765869 829.647095,1121.613647 815.994873,1127.112183 
	C809.143066,1129.871826 802.776001,1133.823975 796.151855,1137.161743 
	C785.878906,1142.338013 774.610535,1139.346436 763.905151,1141.004272 
	C763.619080,1139.447754 763.091797,1137.892456 763.084412,1136.334717 
	C763.014954,1121.690796 762.349915,1107.004517 763.247681,1092.416016 
	C763.948059,1081.033447 766.622437,1069.772217 768.728027,1058.226807 
z"/>
<path fill="#AF6C52" opacity="1.000000" stroke="none" 
	d="
M909.047974,1226.678467 
	C907.900330,1233.281860 906.066528,1239.177124 900.435913,1243.094971 
	C889.435791,1250.749268 877.698608,1256.678345 864.643860,1260.145020 
	C854.398071,1262.865967 845.993103,1267.371460 846.674072,1277.546997 
	C847.064087,1283.374634 850.361145,1289.008911 852.356873,1294.727539 
	C852.891602,1296.259644 853.453796,1297.782104 853.994873,1299.702637 
	C849.544189,1296.453003 844.827515,1293.093750 840.708191,1289.115967 
	C824.788208,1273.742310 809.571594,1257.735840 798.141052,1238.571899 
	C795.043213,1233.378296 792.090454,1228.098267 789.329041,1222.273804 
	C790.409363,1219.461426 791.418335,1217.281860 792.015503,1214.994751 
	C793.280701,1210.149414 792.873901,1204.564453 799.169556,1202.444214 
	C810.325928,1198.686768 821.692200,1195.345459 832.424316,1190.595581 
	C842.535156,1186.120361 851.940552,1180.051758 861.658447,1174.688232 
	C872.088684,1168.931519 883.444824,1164.272949 888.354126,1151.993774 
	C888.552795,1151.496948 889.421448,1151.267944 889.977905,1150.914185 
	C892.644531,1156.276367 895.320068,1161.634033 897.975952,1167.001465 
	C903.475037,1178.114868 910.696655,1187.942627 919.962280,1196.657227 
	C914.564758,1198.523071 908.806152,1199.574097 903.681030,1201.976562 
	C902.391174,1202.581177 902.372681,1207.717651 903.096497,1210.415527 
	C904.553101,1215.844971 906.922058,1221.029541 909.047974,1226.678467 
z"/>
<path fill="#836C76" opacity="1.000000" stroke="none" 
	d="
M889.965027,1150.527344 
	C889.421448,1151.267944 888.552795,1151.496948 888.354126,1151.993774 
	C883.444824,1164.272949 872.088684,1168.931519 861.658447,1174.688232 
	C851.940552,1180.051758 842.535156,1186.120361 832.424316,1190.595581 
	C821.692200,1195.345459 810.325928,1198.686768 799.169556,1202.444214 
	C792.873901,1204.564453 793.280701,1210.149414 792.015503,1214.994751 
	C791.418335,1217.281860 790.409363,1219.461426 789.296265,1221.923218 
	C782.683105,1206.812256 775.489502,1191.753296 770.337646,1176.025269 
	C766.770264,1165.134521 766.018188,1153.321411 763.956665,1141.462402 
	C774.610535,1139.346436 785.878906,1142.338013 796.151855,1137.161743 
	C802.776001,1133.823975 809.143066,1129.871826 815.994873,1127.112183 
	C829.647095,1121.613647 843.560852,1116.765869 857.352661,1111.611938 
	C865.102478,1108.715698 872.843628,1105.793823 880.540344,1102.760864 
	C881.877441,1102.233887 882.973022,1101.093994 884.487915,1100.094971 
	C884.890381,1106.079346 885.335083,1112.225342 885.003418,1118.328979 
	C884.405701,1129.327881 886.501953,1139.817871 889.965027,1150.527344 
z"/>
<path fill="#2057AB" opacity="1.000000" stroke="none" 
	d="
M950.607300,635.975342 
	C949.984558,643.372009 948.459351,650.803955 948.183960,658.281860 
	C947.870483,666.796997 949.127075,675.540588 952.929871,683.083679 
	C957.821533,692.786438 964.278137,701.390930 976.450684,703.595093 
	C980.133301,704.261963 983.320984,707.699768 986.714355,709.900879 
	C987.536682,710.434204 988.247070,711.574890 989.057373,711.623108 
	C995.489807,712.005981 995.847534,718.264648 998.864868,721.856689 
	C999.563293,722.688232 998.401978,725.081909 998.041626,727.057190 
	C1002.553894,728.343933 1007.310974,730.122986 1012.228821,731.015564 
	C1022.660889,732.908875 1033.131958,734.788635 1043.670044,735.842651 
	C1055.632935,737.039001 1067.688110,737.304260 1079.700684,738.016663 
	C1090.644043,738.665588 1101.586060,739.340454 1112.522095,740.101257 
	C1113.563477,740.173706 1114.556885,740.938782 1115.715454,741.717957 
	C1105.202393,741.687378 1094.546387,741.320984 1083.057129,740.703247 
	C1070.451782,740.304443 1058.680176,740.088379 1046.907837,740.050781 
	C1043.293091,740.039185 1039.676880,740.515808 1036.061279,740.768860 
	C1013.174255,740.476929 990.286499,740.234741 967.400574,739.873352 
	C954.811707,739.674500 942.224243,739.330078 929.640015,738.929688 
	C926.203430,738.820312 922.719788,738.540894 919.382874,737.786255 
	C918.104431,737.497131 916.259644,735.684265 916.230225,734.526123 
	C915.949707,723.495972 915.598083,712.438965 916.094360,701.427063 
	C916.469360,693.104187 917.168030,684.601501 919.291870,676.595154 
	C922.909790,662.956848 930.440613,651.438232 941.753662,642.656128 
	C944.592041,640.452759 947.422729,638.239502 950.607300,635.975342 
z"/>
<path fill="#E85E23" opacity="1.000000" stroke="none" 
	d="
M1239.889648,842.468567 
	C1238.889160,840.046082 1237.415283,837.221069 1237.134033,834.281982 
	C1236.013062,822.565918 1227.753296,815.567810 1215.999023,817.171204 
	C1209.942993,817.997253 1203.305176,817.194275 1198.759521,823.140259 
	C1197.723999,824.494751 1194.688354,825.084900 1192.734497,824.823242 
	C1187.730591,824.153015 1182.846313,823.017029 1177.796509,824.628113 
	C1175.828003,825.256165 1173.691650,825.393005 1171.619019,825.653015 
	C1165.601807,826.407898 1159.587036,827.240540 1153.544678,827.643860 
	C1152.915894,827.685791 1151.183105,824.717651 1151.548584,823.737915 
	C1152.983398,819.892944 1155.053711,816.284912 1157.226929,812.044434 
	C1159.848633,808.057922 1161.641724,804.127258 1164.501587,801.261230 
	C1175.012695,790.728027 1185.864746,780.534363 1196.641235,770.268372 
	C1197.312256,769.629150 1198.533691,769.606628 1199.332764,769.055908 
	C1202.368896,766.963074 1205.568604,765.024109 1208.270020,762.550293 
	C1211.461670,759.627380 1213.899902,755.848328 1217.210327,753.096863 
	C1221.574707,749.469421 1226.903076,751.446045 1231.579468,752.482056 
	C1233.196167,752.840271 1234.688721,756.528198 1235.130127,758.901245 
	C1236.427490,765.875671 1237.104980,772.963196 1238.168823,779.984680 
	C1238.468384,781.962402 1239.262085,783.865234 1239.829102,785.802368 
	C1239.874268,804.539429 1239.919312,823.276550 1239.889648,842.468567 
z"/>
<path fill="#2057AB" opacity="1.000000" stroke="none" 
	d="
M1115.941406,742.599731 
	C1116.572632,742.842407 1117.627075,743.464661 1117.768677,744.251221 
	C1119.271240,752.602478 1120.859375,760.950012 1121.948608,769.360107 
	C1122.723267,775.341309 1126.015869,779.612610 1130.611206,782.661987 
	C1132.369995,783.829163 1135.607910,782.884338 1138.159790,782.716797 
	C1145.408203,782.240906 1152.196045,783.355530 1157.684448,787.707397 
	C1167.281006,780.861206 1176.849609,774.035095 1186.806641,767.383911 
	C1187.540527,768.078857 1187.885986,768.598816 1188.408203,769.149780 
	C1188.585083,769.180786 1188.908203,769.024170 1188.673828,769.251343 
	C1185.225098,772.903503 1182.010620,776.328552 1178.465332,779.832275 
	C1172.799194,785.619446 1167.464111,791.327820 1161.931641,797.226196 
	C1161.413208,797.858337 1161.092163,798.300415 1160.457031,798.842773 
	C1159.144165,800.303589 1158.145264,801.664124 1156.958252,803.223877 
	C1156.445801,803.863586 1156.121582,804.304077 1155.515015,804.862427 
	C1154.816284,805.645874 1154.399780,806.311523 1153.802979,807.172852 
	C1153.345459,807.820679 1153.067993,808.272766 1152.486450,808.840698 
	C1151.518188,809.990601 1150.854248,811.024719 1150.072754,812.222290 
	C1149.955078,812.385803 1149.783325,812.750122 1149.476318,812.889526 
	C1148.291626,814.592468 1147.413940,816.156006 1146.391113,817.856079 
	C1146.246094,817.992493 1146.015015,818.316895 1145.870117,818.351685 
	C1145.541504,818.539490 1145.511230,818.718506 1145.444458,819.229858 
	C1144.379395,821.208191 1143.504272,822.880371 1142.412598,824.732544 
	C1142.057373,825.256104 1141.918701,825.599670 1141.693359,826.075378 
	C1141.606689,826.207520 1141.570312,826.521606 1141.354492,826.699219 
	C1141.002563,827.218567 1140.866455,827.560303 1140.564209,828.093872 
	C1140.132690,828.717346 1139.867432,829.148865 1139.327148,829.769409 
	C1138.145264,832.026672 1137.238525,834.094849 1136.276611,836.210205 
	C1136.221313,836.257324 1136.154541,836.386230 1135.998047,836.415894 
	C1135.636719,836.599731 1135.596558,836.789001 1135.562134,837.307129 
	C1135.315063,837.805786 1135.227295,838.010620 1134.991211,838.266724 
	C1134.618408,838.602356 1134.620483,838.885559 1134.757080,839.390747 
	C1134.555298,839.923950 1134.522461,840.241882 1134.353394,840.744751 
	C1134.032349,841.268616 1133.924561,841.615601 1133.636963,842.220764 
	C1133.010010,843.425903 1132.562866,844.372742 1131.966064,845.368164 
	C1131.633301,845.590210 1131.612549,845.781311 1131.592773,846.340698 
	C1131.109497,847.932251 1130.787231,849.173218 1130.245361,850.557739 
	C1129.857910,851.172485 1129.690063,851.643555 1129.360474,852.457397 
	C1127.450073,857.609375 1125.730103,862.429199 1123.944702,867.224609 
	C1122.230713,871.828186 1120.448975,876.406555 1118.696899,880.995972 
	C1118.161499,868.439148 1117.301392,855.885986 1117.160522,843.324707 
	C1116.895142,819.671204 1117.144409,796.012329 1116.973633,772.357178 
	C1116.903076,762.588013 1116.301147,752.822693 1115.941406,742.599731 
z"/>
<path fill="#AF6C52" opacity="1.000000" stroke="none" 
	d="
M1155.797363,804.744568 
	C1156.121582,804.304077 1156.445801,803.863586 1157.281738,803.153076 
	C1158.786133,801.502869 1159.778687,800.122681 1160.771240,798.742432 
	C1161.092163,798.300415 1161.413208,797.858337 1162.260742,797.159424 
	C1166.604736,793.577026 1170.614746,790.441528 1174.163696,786.850525 
	C1176.109497,784.881714 1177.277588,782.144348 1178.796265,779.753540 
	C1182.010620,776.328552 1185.225098,772.903503 1189.023193,769.201294 
	C1195.927002,761.994141 1202.736816,755.443909 1208.466675,748.056091 
	C1220.846069,732.094971 1227.910645,713.170166 1236.812866,695.273376 
	C1237.647827,693.594604 1239.516357,692.429993 1240.905151,691.026672 
	C1240.941040,704.128418 1241.123779,717.231873 1240.977417,730.331604 
	C1240.773926,748.530640 1240.323730,766.726929 1239.904053,785.363403 
	C1239.262085,783.865234 1238.468384,781.962402 1238.168823,779.984680 
	C1237.104980,772.963196 1236.427490,765.875671 1235.130127,758.901245 
	C1234.688721,756.528198 1233.196167,752.840271 1231.579468,752.482056 
	C1226.903076,751.446045 1221.574707,749.469421 1217.210327,753.096863 
	C1213.899902,755.848328 1211.461670,759.627380 1208.270020,762.550293 
	C1205.568604,765.024109 1202.368896,766.963074 1199.332764,769.055908 
	C1198.533691,769.606628 1197.312256,769.629150 1196.641235,770.268372 
	C1185.864746,780.534363 1175.012695,790.728027 1164.501587,801.261230 
	C1161.641724,804.127258 1159.848633,808.057922 1157.307007,811.697144 
	C1154.916260,813.188477 1152.784424,814.482666 1150.265503,815.836365 
	C1149.878418,815.895874 1149.707886,815.738281 1149.747314,815.366821 
	C1149.785645,814.246948 1149.784424,813.498535 1149.783325,812.750122 
	C1149.783325,812.750122 1149.955078,812.385803 1150.386475,812.132812 
	C1151.475586,810.828125 1152.133057,809.776550 1152.790649,808.724915 
	C1153.067993,808.272766 1153.345459,807.820679 1154.110352,807.090332 
	C1154.997559,806.122925 1155.397461,805.433716 1155.797363,804.744568 
z"/>
<path fill="#836C76" opacity="1.000000" stroke="none" 
	d="
M1240.969482,690.583740 
	C1239.516357,692.429993 1237.647827,693.594604 1236.812866,695.273376 
	C1227.910645,713.170166 1220.846069,732.094971 1208.466675,748.056091 
	C1202.736816,755.443909 1195.927002,761.994141 1189.257568,768.974121 
	C1188.908203,769.024170 1188.585083,769.180786 1188.630615,768.859497 
	C1188.815674,768.081299 1188.955078,767.624390 1189.094482,767.167480 
	C1190.671631,765.301270 1192.248657,763.434998 1193.948486,761.249268 
	C1200.815063,750.542603 1208.205444,740.511292 1214.160156,729.689941 
	C1224.682373,710.568176 1232.215210,690.076904 1237.753540,669.021240 
	C1240.084717,660.158630 1239.835327,650.617188 1240.852539,641.085327 
	C1240.975098,657.237854 1241.004395,673.689331 1240.969482,690.583740 
z"/>
<path fill="#AF6C52" opacity="1.000000" stroke="none" 
	d="
M1135.139648,838.215393 
	C1135.227295,838.010620 1135.315063,837.805786 1135.659668,837.224548 
	C1136.038940,836.716370 1136.118286,836.562439 1136.154541,836.386230 
	C1136.154541,836.386230 1136.221313,836.257324 1136.540527,836.097778 
	C1137.748657,834.985962 1138.637695,834.033691 1139.526733,833.081421 
	C1137.429932,838.761902 1135.229370,844.406616 1133.256592,850.129883 
	C1128.288940,864.541931 1123.424194,878.989502 1118.336670,893.738586 
	C1118.291748,889.936829 1118.428345,885.819397 1118.630859,881.348938 
	C1120.448975,876.406555 1122.230713,871.828186 1123.944702,867.224609 
	C1125.730103,862.429199 1127.450073,857.609375 1129.583496,852.326172 
	C1130.133789,851.372803 1130.299316,850.893494 1130.464966,850.414124 
	C1130.787231,849.173218 1131.109497,847.932251 1131.682495,846.248779 
	C1132.042603,845.662231 1132.103516,845.500061 1132.115723,845.319641 
	C1132.562866,844.372742 1133.010010,843.425903 1133.845459,842.039368 
	C1134.344849,841.255798 1134.455688,840.911804 1134.566528,840.567810 
	C1134.522461,840.241882 1134.555298,839.923950 1134.864014,839.162598 
	C1135.088501,838.545898 1135.114136,838.380615 1135.139648,838.215393 
z"/>
<path fill="#556C97" opacity="1.000000" stroke="none" 
	d="
M951.354370,1004.001709 
	C952.459778,998.958008 957.432251,998.266113 961.194397,996.402100 
	C966.946167,993.552124 973.020264,991.285767 979.099304,989.181030 
	C985.687012,986.900024 992.437195,985.088196 999.524292,983.070984 
	C990.696777,987.028625 981.450806,990.962585 972.229431,994.953186 
	C965.377686,997.918335 958.557678,1000.956909 951.354370,1004.001709 
z"/>
<path fill="#236DB6" opacity="1.000000" stroke="none" 
	d="
M1036.522827,740.828979 
	C1039.676880,740.515808 1043.293091,740.039185 1046.907837,740.050781 
	C1058.680176,740.088379 1070.451782,740.304443 1082.590820,740.631348 
	C1067.633301,740.836975 1052.308838,740.863037 1036.522827,740.828979 
z"/>
<path fill="#AF6C52" opacity="1.000000" stroke="none" 
	d="
M862.039917,1306.329468 
	C862.868896,1306.510498 863.822327,1307.000488 864.885437,1307.817383 
	C864.051514,1307.642456 863.108032,1307.140381 862.039917,1306.329468 
z"/>
<path fill="#236DB6" opacity="1.000000" stroke="none" 
	d="
M778.773865,1029.068115 
	C778.896057,1029.255493 778.744141,1029.492310 778.403564,1029.854370 
	C778.096558,1029.633545 778.191467,1029.346191 778.773865,1029.068115 
z"/>
<path fill="#AF6C52" opacity="1.000000" stroke="none" 
	d="
M921.009155,1197.733887 
	C920.821350,1197.783447 920.547241,1197.568115 920.136230,1197.127563 
	C920.307129,1197.091309 920.614990,1197.280151 921.009155,1197.733887 
z"/>
<path fill="#AF6C52" opacity="1.000000" stroke="none" 
	d="
M922.007263,1198.736084 
	C921.820862,1198.784424 921.547363,1198.568970 921.136963,1198.128418 
	C921.306702,1198.093018 921.613464,1198.282715 922.007263,1198.736084 
z"/>
<path fill="#AF6C52" opacity="1.000000" stroke="none" 
	d="
M923.007996,1199.735840 
	C922.821838,1199.784424 922.547607,1199.569702 922.136169,1199.129883 
	C922.305969,1199.093994 922.612976,1199.283081 923.007996,1199.735840 
z"/>
<path fill="#AF6C52" opacity="1.000000" stroke="none" 
	d="
M924.032227,1200.733398 
	C923.851074,1200.781616 923.568481,1200.568115 923.141602,1200.128906 
	C923.308472,1200.092773 923.619629,1200.282227 924.032227,1200.733398 
z"/>
<path fill="#E85E23" opacity="1.000000" stroke="none" 
	d="
M1198.289795,1245.988281 
	C1198.166504,1245.801147 1198.321411,1245.560425 1198.664307,1245.189453 
	C1198.718872,1245.325928 1198.623901,1245.617798 1198.289795,1245.988281 
z"/>
<path fill="#AF6C52" opacity="1.000000" stroke="none" 
	d="
M1141.570312,826.521606 
	C1141.570312,826.521606 1141.606689,826.207520 1141.916992,825.900391 
	C1142.361328,825.246399 1142.495239,824.899475 1142.629150,824.552551 
	C1143.504272,822.880371 1144.379395,821.208191 1145.543213,819.157349 
	C1145.950928,818.647888 1146.011963,818.493958 1146.015015,818.316895 
	C1146.015015,818.316895 1146.246094,817.992493 1146.690430,817.750793 
	C1147.992432,816.918823 1148.850098,816.328552 1149.707886,815.738281 
	C1149.707886,815.738281 1149.878418,815.895874 1149.963135,815.975830 
	C1146.952637,821.269531 1143.857544,826.483276 1140.363281,831.417480 
	C1139.843384,830.618835 1139.722778,830.099670 1139.602173,829.580444 
	C1139.867432,829.148865 1140.132690,828.717346 1140.786621,827.920959 
	C1141.307007,827.211243 1141.438599,826.866394 1141.570312,826.521606 
z"/>
<path fill="#836C76" opacity="1.000000" stroke="none" 
	d="
M1139.327148,829.769409 
	C1139.722778,830.099670 1139.843384,830.618835 1140.056519,831.524597 
	C1140.052246,832.108459 1139.955566,832.305725 1139.692749,832.792236 
	C1138.637695,834.033691 1137.748657,834.985962 1136.595703,836.050659 
	C1137.238525,834.094849 1138.145264,832.026672 1139.327148,829.769409 
z"/>
<path fill="#556C97" opacity="1.000000" stroke="none" 
	d="
M1188.765015,767.123535 
	C1188.955078,767.624390 1188.815674,768.081299 1188.453857,768.828491 
	C1187.885986,768.598816 1187.540527,768.078857 1187.153198,767.312866 
	C1187.552734,767.071167 1187.994141,767.075378 1188.765015,767.123535 
z"/>
<path fill="#E85E23" opacity="1.000000" stroke="none" 
	d="
M927.299316,1330.032227 
	C927.101929,1330.107422 926.908997,1330.060425 926.716125,1330.013428 
	C926.912048,1329.979004 927.107971,1329.944458 927.299316,1330.032227 
z"/>
<path fill="#836C76" opacity="1.000000" stroke="none" 
	d="
M1178.465332,779.832275 
	C1177.277588,782.144348 1176.109497,784.881714 1174.163696,786.850525 
	C1170.614746,790.441528 1166.604736,793.577026 1162.458008,796.969360 
	C1167.464111,791.327820 1172.799194,785.619446 1178.465332,779.832275 
z"/>
<path fill="#836C76" opacity="1.000000" stroke="none" 
	d="
M1160.457031,798.842773 
	C1159.778687,800.122681 1158.786133,801.502869 1157.469971,802.953857 
	C1158.145264,801.664124 1159.144165,800.303589 1160.457031,798.842773 
z"/>
<path fill="#836C76" opacity="1.000000" stroke="none" 
	d="
M1149.747314,815.366821 
	C1148.850098,816.328552 1147.992432,816.918823 1146.835449,817.614380 
	C1147.413940,816.156006 1148.291626,814.592468 1149.476318,812.889526 
	C1149.784424,813.498535 1149.785645,814.246948 1149.747314,815.366821 
z"/>
<path fill="#836C76" opacity="1.000000" stroke="none" 
	d="
M1152.486450,808.840698 
	C1152.133057,809.776550 1151.475586,810.828125 1150.504150,811.969299 
	C1150.854248,811.024719 1151.518188,809.990601 1152.486450,808.840698 
z"/>
<path fill="#836C76" opacity="1.000000" stroke="none" 
	d="
M1155.515015,804.862427 
	C1155.397461,805.433716 1154.997559,806.122925 1154.290527,806.894653 
	C1154.399780,806.311523 1154.816284,805.645874 1155.515015,804.862427 
z"/>
<path fill="#836C76" opacity="1.000000" stroke="none" 
	d="
M1130.245361,850.557739 
	C1130.299316,850.893494 1130.133789,851.372803 1129.745117,851.983398 
	C1129.690063,851.643555 1129.857910,851.172485 1130.245361,850.557739 
z"/>
<path fill="#836C76" opacity="1.000000" stroke="none" 
	d="
M1131.966064,845.368164 
	C1132.103516,845.500061 1132.042603,845.662231 1131.843506,845.898193 
	C1131.612549,845.781311 1131.633301,845.590210 1131.966064,845.368164 
z"/>
<path fill="#836C76" opacity="1.000000" stroke="none" 
	d="
M1134.353394,840.744751 
	C1134.455688,840.911804 1134.344849,841.255798 1134.025391,841.781128 
	C1133.924561,841.615601 1134.032349,841.268616 1134.353394,840.744751 
z"/>
<path fill="#836C76" opacity="1.000000" stroke="none" 
	d="
M1134.991211,838.266724 
	C1135.114136,838.380615 1135.088501,838.545898 1134.955933,838.939331 
	C1134.620483,838.885559 1134.618408,838.602356 1134.991211,838.266724 
z"/>
<path fill="#836C76" opacity="1.000000" stroke="none" 
	d="
M1135.998047,836.415894 
	C1136.118286,836.562439 1136.038940,836.716370 1135.818848,836.930664 
	C1135.596558,836.789001 1135.636719,836.599731 1135.998047,836.415894 
z"/>
<path fill="#836C76" opacity="1.000000" stroke="none" 
	d="
M1145.870117,818.351685 
	C1146.011963,818.493958 1145.950928,818.647888 1145.732910,818.851074 
	C1145.511230,818.718506 1145.541504,818.539490 1145.870117,818.351685 
z"/>
<path fill="#836C76" opacity="1.000000" stroke="none" 
	d="
M1142.412598,824.732544 
	C1142.495239,824.899475 1142.361328,825.246399 1142.003784,825.768311 
	C1141.918701,825.599670 1142.057373,825.256104 1142.412598,824.732544 
z"/>
<path fill="#836C76" opacity="1.000000" stroke="none" 
	d="
M1141.354370,826.699219 
	C1141.438599,826.866394 1141.307007,827.211243 1140.952881,827.729004 
	C1140.866455,827.560303 1141.002563,827.218567 1141.354370,826.699219 
z"/>
</svg>